<svg width="1304" height="873" viewBox="0 0 1304 873" fill="none" xmlns="http://www.w3.org/2000/svg">
<path d="M1020.98 456.446C1019.91 454.871 1019.85 454.797 1019.85 454.795C1019.85 454.796 1019.84 454.799 1019.84 454.802C1019.83 454.808 1019.81 454.817 1019.8 454.829C1019.76 454.854 1019.71 454.892 1019.63 454.941C1019.49 455.041 1019.27 455.189 1018.98 455.385C1018.4 455.776 1017.53 456.358 1016.4 457.113C1014.14 458.625 1010.81 460.837 1006.55 463.637C998.019 469.236 985.737 477.184 970.739 486.573C940.741 505.354 899.892 529.895 856.467 552.95C813.027 576.014 767.08 597.551 726.874 610.363C706.77 616.77 688.173 620.971 672.085 622.113C655.97 623.257 642.582 621.317 632.72 615.666C622.53 609.828 619.558 598.786 621.383 584.575C623.207 570.373 629.787 553.638 637.861 537.527C645.917 521.453 655.379 506.158 662.837 494.871C666.564 489.231 669.785 484.597 672.073 481.377C673.217 479.767 674.128 478.51 674.751 477.657C675.063 477.231 675.302 476.906 675.464 476.688C675.513 476.621 675.555 476.565 675.589 476.519C764.453 396.831 848.131 319.526 906.795 260.488C936.133 230.963 959.268 205.953 973.669 187.476C980.852 178.259 985.957 170.549 988.542 164.651C989.827 161.719 990.576 159.043 990.52 156.757C990.46 154.347 989.483 152.284 987.358 151.053C984.055 149.139 979.897 149.192 975.371 150.457C970.817 151.73 965.571 154.315 959.788 157.936C948.209 165.184 934.093 176.832 918.44 191.398C887.114 220.551 849.343 261.675 812.932 303.511C776.511 345.357 741.411 387.962 715.419 420.102C702.422 436.172 691.7 449.629 684.228 459.068C680.491 463.788 677.568 467.503 675.577 470.039C674.582 471.307 673.82 472.28 673.307 472.937C673.05 473.265 672.856 473.514 672.726 473.681C672.694 473.722 672.665 473.757 672.641 473.788C634.701 507.808 595.813 542.265 557.519 575.924C540.533 534.763 518.645 486.537 500.87 448.33C491.794 428.821 483.787 411.917 478.05 399.891C475.181 393.877 472.88 389.083 471.295 385.792C470.503 384.147 469.89 382.876 469.475 382.018C469.267 381.588 469.109 381.261 469.003 381.042C468.95 380.932 468.91 380.849 468.883 380.794C468.869 380.766 468.858 380.745 468.852 380.731C468.848 380.725 468.846 380.719 468.845 380.716C468.844 380.714 468.843 380.713 468.843 380.712C468.842 380.711 468.841 380.71 467.042 381.583C465.293 382.432 465.244 382.456 465.243 382.457L465.253 382.477C465.26 382.49 465.27 382.512 465.283 382.539C465.31 382.594 465.35 382.676 465.402 382.785C465.508 383.004 465.666 383.329 465.873 383.758C466.287 384.615 466.899 385.883 467.69 387.526C469.273 390.814 471.573 395.605 474.439 401.613C480.173 413.631 488.173 430.522 497.243 450.018C515.194 488.603 537.321 537.364 554.343 578.716C466.801 655.627 382.594 728.177 320.189 781.569C288.86 808.374 263.026 830.351 245.025 845.625C236.025 853.262 228.982 859.224 224.19 863.276C221.794 865.303 219.961 866.851 218.727 867.894C218.109 868.415 217.642 868.809 217.329 869.073C217.173 869.205 217.054 869.305 216.976 869.371C216.936 869.404 216.906 869.43 216.887 869.446C216.877 869.455 216.869 869.461 216.864 869.465C216.862 869.467 216.861 869.469 216.859 869.47C216.862 869.475 216.931 869.558 218.146 871C219.436 872.529 219.436 872.528 219.438 872.527C219.439 872.526 219.441 872.525 219.443 872.522C219.448 872.518 219.456 872.512 219.466 872.504C219.486 872.487 219.515 872.462 219.555 872.429C219.634 872.362 219.752 872.262 219.908 872.13C220.222 871.866 220.689 871.471 221.307 870.95C222.542 869.907 224.377 868.357 226.773 866.33C231.567 862.276 238.611 856.313 247.613 848.675C265.618 833.397 291.456 811.417 322.79 784.608C384.957 731.42 468.759 659.218 555.946 582.63C556.261 583.401 556.577 584.168 556.888 584.934C574.068 627.209 594.875 684.256 611.394 730.756C619.651 754.001 626.834 774.603 631.953 789.393C634.512 796.787 636.556 802.73 637.959 806.822C638.66 808.868 639.202 810.452 639.568 811.524C639.751 812.061 639.89 812.469 639.983 812.743C640.03 812.88 640.065 812.984 640.089 813.053C640.101 813.087 640.11 813.114 640.116 813.131C640.119 813.139 640.121 813.146 640.122 813.15C640.123 813.153 640.124 813.154 640.124 813.155C640.124 813.156 640.125 813.157 642.019 812.513C643.867 811.884 643.91 811.869 643.911 811.867C643.911 811.866 643.91 811.864 643.909 811.862C643.908 811.858 643.905 811.851 643.902 811.842C643.896 811.824 643.888 811.798 643.876 811.764C643.852 811.694 643.816 811.59 643.77 811.453C643.676 811.178 643.537 810.769 643.354 810.232C642.987 809.159 642.444 807.572 641.742 805.524C640.338 801.428 638.294 795.483 635.733 788.084C630.612 773.286 623.424 752.675 615.162 729.417C598.641 682.91 577.81 625.791 560.594 583.428C560.11 582.237 559.619 581.041 559.126 579.837C593.429 549.691 628.221 518.893 662.394 488.333C661.471 489.7 660.503 491.147 659.499 492.666C651.993 504.027 642.438 519.467 634.285 535.735C626.15 551.967 619.327 569.185 617.416 584.065C615.506 598.937 618.464 612.108 630.731 619.137C641.571 625.348 655.875 627.274 672.368 626.103C688.889 624.929 707.819 620.634 728.088 614.175C768.63 601.256 814.821 579.59 858.342 556.483C901.878 533.369 942.815 508.775 972.862 489.963C987.887 480.556 1000.19 472.593 1008.74 466.98C1013.02 464.174 1016.36 461.955 1018.63 460.438C1019.76 459.679 1020.63 459.095 1021.21 458.701C1021.51 458.504 1021.73 458.354 1021.88 458.253C1021.95 458.203 1022.01 458.165 1022.04 458.14C1022.06 458.127 1022.08 458.117 1022.09 458.11C1022.09 458.107 1022.09 458.104 1022.1 458.103C1022.1 458.101 1022.1 458.1 1020.98 456.446ZM1020.98 456.446C1022.07 458.068 1022.09 458.104 1022.1 458.103C1022.1 458.101 1022.1 458.097 1022.11 458.094C1022.12 458.086 1022.14 458.075 1022.16 458.06C1022.21 458.03 1022.27 457.985 1022.36 457.926C1022.53 457.807 1022.79 457.63 1023.14 457.396C1023.82 456.93 1024.83 456.236 1026.14 455.326C1028.77 453.506 1032.61 450.819 1037.45 447.347C1047.15 440.402 1060.88 430.318 1077.07 417.751C1109.42 392.621 1151.59 357.542 1190.77 317.774C1229.92 278.029 1266.21 233.489 1286.68 189.428C1307.16 145.354 1311.96 101.396 1287.46 63.2705C1272.48 39.9568 1243.99 24.9517 1210.18 15.4326C1176.3 5.89614 1136.72 1.76292 1099.06 0.473633C1061.38 -0.816196 1025.55 0.737592 999.138 2.6123C985.931 3.54983 975.075 4.56836 967.519 5.35254C963.74 5.74463 960.786 6.07765 958.775 6.31348C957.77 6.43139 957 6.52574 956.48 6.58984C956.221 6.62186 956.024 6.64633 955.892 6.66309C955.825 6.67144 955.775 6.67731 955.741 6.68164C955.724 6.6838 955.711 6.6854 955.702 6.68652C955.698 6.68707 955.695 6.6882 955.692 6.68848C955.69 6.69061 955.697 6.75017 955.945 8.67188L955.688 6.68848L955.679 6.69043L955.669 6.69141L955.937 8.61133C955.669 6.69146 955.667 6.692 955.664 6.69238C955.662 6.69272 955.658 6.69273 955.653 6.69336C955.644 6.69468 955.63 6.69668 955.612 6.69922C955.576 6.70432 955.523 6.71255 955.453 6.72266C955.313 6.74288 955.106 6.77245 954.832 6.81348C954.284 6.89562 953.47 7.02129 952.398 7.19336C950.256 7.53751 947.086 8.07 942.962 8.82617C934.713 10.3386 922.647 12.745 907.354 16.3242C876.767 23.4824 833.265 35.3332 781.56 54.1084C678.154 91.6573 541.903 156.915 410.546 267.76C234.642 416.195 132.043 547.598 73.4072 641.95C44.0901 689.125 25.7649 727.033 14.7637 753.172C9.26315 766.241 5.59325 776.369 3.2959 783.239C2.14738 786.674 1.34215 789.295 0.822266 791.063C0.562312 791.948 0.373292 792.619 0.249023 793.071C0.186926 793.297 0.14125 793.469 0.110352 793.586C0.0949008 793.644 0.083174 793.689 0.0751953 793.72C0.0712834 793.735 0.0685585 793.747 0.0664062 793.755C0.0653248 793.759 0.0640152 793.764 0.0634766 793.766C0.066317 793.769 0.146643 793.791 2 794.265C3.83048 794.732 3.93175 794.759 3.9375 794.76C3.93785 794.758 3.93875 794.757 3.93945 794.754C3.94088 794.748 3.94305 794.739 3.94629 794.727C3.95278 794.702 3.96267 794.663 3.97656 794.61C4.00442 794.505 4.04749 794.345 4.10645 794.13C4.22438 793.7 4.40711 793.053 4.66016 792.192C5.16641 790.471 5.95687 787.895 7.08984 784.507C9.35579 777.73 12.9896 767.698 18.4502 754.724C29.3713 728.775 47.5998 691.054 76.8037 644.062C135.21 550.078 237.53 418.992 413.126 270.817C544.038 160.349 679.844 95.2991 782.925 57.8682C834.463 39.1537 877.812 27.3459 908.266 20.2188C923.492 16.6553 935.495 14.2622 943.684 12.7607C947.778 12.01 950.919 11.4822 953.033 11.1426C954.09 10.9728 954.89 10.8496 955.425 10.7695C955.692 10.7295 955.893 10.6999 956.026 10.6807C956.093 10.6711 956.142 10.6648 956.175 10.6602C956.188 10.6583 956.198 10.6554 956.206 10.6543C956.208 10.6541 956.21 10.6546 956.213 10.6543C956.221 10.6533 956.232 10.6514 956.248 10.6494C956.28 10.6453 956.328 10.64 956.393 10.6318C956.521 10.6156 956.715 10.5911 956.971 10.5596C957.482 10.4964 958.244 10.404 959.241 10.2871C961.236 10.0532 964.172 9.72121 967.932 9.33105C975.451 8.55072 986.263 7.53658 999.421 6.60254C1025.74 4.73411 1061.43 3.18812 1098.92 4.47168C1136.43 5.75581 1175.66 9.87 1209.09 19.2832C1242.59 28.7138 1269.91 43.3607 1284.1 65.4326C1307.55 101.937 1303.23 144.305 1283.05 187.742C1262.86 231.191 1226.95 275.347 1187.92 314.968C1148.91 354.566 1106.89 389.525 1074.61 414.592C1058.48 427.123 1044.78 437.176 1035.12 444.095C1030.29 447.554 1026.47 450.23 1023.86 452.039C1022.56 452.944 1021.56 453.632 1020.88 454.094C1020.54 454.324 1020.29 454.498 1020.12 454.614C1020.03 454.672 1019.96 454.716 1019.92 454.745C1019.9 454.759 1019.88 454.77 1019.87 454.777C1019.87 454.781 1019.86 454.783 1019.86 454.785C1019.86 454.788 1019.89 454.838 1020.98 456.446ZM1020.98 456.446L1019.85 454.793L1019.86 454.787L1020.98 456.446Z" stroke="black" stroke-width="4"/>
</svg>
